<svg width="179.000000" height="32.000000" viewBox="0 0 179 32" fill="none" xmlns="http://www.w3.org/2000/svg" xmlns:xlink="http://www.w3.org/1999/xlink">
	<desc>
			Created with Pixso.
	</desc>
	<defs/>
	<path id="Vector" d="M146.88 29.68C146.26 30.45 144.01 32 140.68 32C134.1 32 129.46 27.05 129.46 20.01C129.46 12.9 133.64 8.03 140.3 8.03C143.78 8.03 145.95 9.81 146.41 10.35L146.41 0L153.69 0L153.69 31.45L146.88 31.45L146.88 29.68ZM0 16.07C0 7.26 6.34 0.3 16.02 0.3C25.7 0.3 32.05 7.26 32.05 16.07C32.05 19.24 31.2 22.18 29.81 24.57L32.52 26.89L28.1 32L25.16 29.37C22.68 30.91 19.59 31.84 16.1 31.84C6.34 31.92 0 25.04 0 16.07ZM7.74 16.07C7.74 21.17 11.15 24.96 15.95 24.96C17.11 24.96 18.27 24.73 19.2 24.34L16.64 22.1L20.98 17.08L23.61 19.4C23.92 18.39 24.15 17.31 24.15 16.15C24.15 11.13 20.82 7.34 15.95 7.34C11.07 7.34 7.74 11.05 7.74 16.07ZM41.96 21.95C42.12 23.96 44.13 25.73 46.76 25.73C49.47 25.73 51.1 23.96 51.56 23.26L56.36 26.97C55.75 28.28 52.57 32 46.61 32C39.1 32 34.45 26.82 34.45 20.09C34.45 13.37 39.02 8.03 45.68 8.03C52.96 8.03 56.91 12.67 56.91 20.48L56.91 20.48C56.91 20.94 56.91 21.41 56.83 21.95L41.96 21.95ZM98.64 24.03L100.58 29.99C99.03 31.07 96.7 32 93.84 32C86.56 32 81.45 27.05 81.45 20.01C81.45 12.98 86.79 8.03 93.84 8.03C96.78 8.03 99.03 8.96 100.65 10.12L98.72 16.23C97.48 15.14 95.85 14.53 94.15 14.53C90.74 14.53 88.81 16.92 88.81 19.94C88.81 23.26 91.05 25.58 94.46 25.58C96.01 25.66 97.63 24.88 98.64 24.03ZM163.14 21.95C163.29 23.96 165.31 25.73 167.94 25.73C170.65 25.73 172.28 23.96 172.74 23.26L177.54 26.97C176.92 28.28 173.75 32 167.78 32C160.27 32 155.63 26.82 155.63 20.09C155.63 13.37 160.2 8.03 166.86 8.03C174.13 8.03 178.08 12.67 178.08 20.48C178.08 20.94 178.08 21.41 178.01 21.95L163.14 21.95ZM114.98 8.03C122.33 8.03 127.52 13.06 127.52 20.01C127.52 26.89 122.18 32 114.98 32C107.7 32 102.59 26.97 102.59 20.09C102.59 20.04 102.59 19.99 102.59 19.94C102.59 13.06 107.91 8.03 114.98 8.03ZM72.31 18.39C72.31 16.23 71.08 15.14 69.29 15.14C67.28 15.14 66.12 16.61 66.12 18.39L66.12 32L58.84 32L58.84 9.19L65.96 9.19L65.96 11.51C66.82 10.2 68.83 8.57 71.69 8.57C78.82 8.57 79.52 14.68 79.52 19.32L79.52 32L72.24 32L72.24 18.39L72.31 18.39ZM42.19 17.39L49.63 17.39C49.55 15.53 48.16 13.99 45.91 13.99C43.51 13.99 42.35 15.76 42.19 17.39ZM163.37 17.39L170.8 17.39C170.73 15.53 169.33 13.99 167.09 13.99C164.69 13.99 163.53 15.76 163.37 17.39ZM141.69 14.37C138.75 14.37 136.74 16.69 136.74 20.01C136.74 23.42 138.75 25.58 141.69 25.58C144.87 25.58 146.65 23.03 146.65 20.01C146.57 16.46 144.56 14.37 141.69 14.37ZM114.98 25.58C118 25.58 120.24 23.26 120.24 19.94C120.24 16.61 117.92 14.37 114.98 14.37C111.96 14.37 109.87 16.69 109.87 20.01C109.87 20.07 109.87 20.13 109.87 20.19C109.87 23.42 112.01 25.58 114.98 25.58Z" fill="#316FEA" fill-opacity="1.000000" fill-rule="evenodd"/>
</svg>
